<svg width="27" height="35" viewBox="0 0 27 35" fill="none" xmlns="http://www.w3.org/2000/svg">
<path d="M26.5482 8.9916L18.3521 0.795508C18.1236 0.566992 17.8151 0.4375 17.4914 0.4375H1.3125C0.638379 0.4375 0.09375 0.982129 0.09375 1.65625V33.3438C0.09375 34.0179 0.638379 34.5625 1.3125 34.5625H25.6875C26.3616 34.5625 26.9062 34.0179 26.9062 33.3438V9.85615C26.9062 9.53242 26.7768 9.22012 26.5482 8.9916ZM24.0955 10.416H16.9277V3.24824L24.0955 10.416ZM24.1641 31.8203H2.83594V3.17969H14.3379V11.4062C14.3379 11.8305 14.5064 12.2374 14.8064 12.5373C15.1064 12.8373 15.5133 13.0059 15.9375 13.0059H24.1641V31.8203ZM14.7188 15.9766C14.7188 15.809 14.5816 15.6719 14.4141 15.6719H12.5859C12.4184 15.6719 12.2812 15.809 12.2812 15.9766V20.0898H8.16797C8.00039 20.0898 7.86328 20.227 7.86328 20.3945V22.2227C7.86328 22.3902 8.00039 22.5273 8.16797 22.5273H12.2812V26.6406C12.2812 26.8082 12.4184 26.9453 12.5859 26.9453H14.4141C14.5816 26.9453 14.7188 26.8082 14.7188 26.6406V22.5273H18.832C18.9996 22.5273 19.1367 22.3902 19.1367 22.2227V20.3945C19.1367 20.227 18.9996 20.0898 18.832 20.0898H14.7188V15.9766Z" fill="white"/>
</svg>
