<svg width="23" height="23" viewBox="0 0 23 23" fill="none" xmlns="http://www.w3.org/2000/svg">
<path d="M11.5 -0.0244446C5.14554 -0.0244446 -0.0251465 5.14481 -0.0251465 11.5C-0.0251465 17.8552 5.14554 23.0244 11.5 23.0244C17.8545 23.0244 23.0252 17.8552 23.0252 11.5C23.0252 5.14481 17.8545 -0.0244446 11.5 -0.0244446ZM11.5 22.2568C5.56889 22.2568 0.743916 17.4311 0.743916 11.5C0.743916 5.56887 5.56889 0.74318 11.5 0.74318C17.4311 0.74318 22.2561 5.56887 22.2561 11.5C22.2561 17.4311 17.4311 22.2568 11.5 22.2568Z" fill="white"/>
<path d="M14.0156 5.03125H12.098C9.6557 5.00681 9.34376 6.51834 9.34376 8.15422V9.34375H8.26563C8.2169 9.33724 8.16733 9.34205 8.12076 9.35781C8.07419 9.37357 8.03189 9.39985 7.99712 9.43461C7.96236 9.46938 7.93608 9.51168 7.92032 9.55825C7.90456 9.60482 7.89975 9.65439 7.90626 9.70312V11.8594C7.89975 11.9081 7.90456 11.9577 7.92032 12.0042C7.93608 12.0508 7.96236 12.0931 7.99712 12.1279C8.03189 12.1626 8.07419 12.1889 8.12076 12.2047C8.16733 12.2204 8.2169 12.2253 8.26563 12.2187H9.34376V17.6094C9.33777 17.6582 9.34302 17.7077 9.3591 17.7542C9.37519 17.8007 9.40168 17.8429 9.43656 17.8775C9.47144 17.9122 9.51379 17.9385 9.56036 17.9543C9.60694 17.9701 9.65651 17.975 9.70529 17.9687H11.9011C12.1131 17.9932 12.2849 17.8214 12.2173 17.6094L12.2188 12.2187H14.0156C14.0644 12.2253 14.1139 12.2204 14.1605 12.2047C14.2071 12.1889 14.2494 12.1626 14.2841 12.1279C14.3189 12.0931 14.3452 12.0508 14.3609 12.0042C14.3767 11.9577 14.3815 11.9081 14.375 11.8594V9.70312C14.3815 9.65439 14.3767 9.60482 14.3609 9.55825C14.3452 9.51168 14.3189 9.46938 14.2841 9.43461C14.2494 9.39985 14.2071 9.37357 14.1605 9.35781C14.1139 9.34205 14.0644 9.33724 14.0156 9.34375H12.2166L12.2188 8.26562C12.2885 7.80634 12.2885 7.88109 12.7147 7.90625H14.0005C14.1004 7.88397 14.2068 7.89619 14.2816 7.82359C14.3563 7.751 14.3994 7.65181 14.3743 7.54687V5.39062C14.3809 5.34193 14.3762 5.29237 14.3606 5.24579C14.3449 5.19922 14.3187 5.15689 14.284 5.12211C14.2493 5.08733 14.207 5.06103 14.1604 5.04527C14.1139 5.02951 14.0643 5.02471 14.0156 5.03125ZM13.6311 7.14725L12.7298 7.11275C11.6136 7.11275 11.5201 7.71865 11.5201 8.33894L11.5173 9.70169C11.5172 9.75215 11.527 9.80213 11.5463 9.84878C11.5655 9.89543 11.5938 9.93783 11.6294 9.97355C11.6651 10.0093 11.7074 10.0376 11.754 10.0569C11.8006 10.0763 11.8506 10.0862 11.9011 10.0862H13.6563V11.4748H11.9025C11.8006 11.4748 11.703 11.5153 11.6309 11.5872C11.5588 11.6592 11.5182 11.7568 11.518 11.8587L11.5173 17.25H10.0625V11.8594C10.0625 11.6473 9.91804 11.4756 9.70529 11.4756H8.62501V10.0869H9.70529C9.75572 10.087 9.80567 10.0771 9.85229 10.0579C9.89891 10.0387 9.94128 10.0104 9.97698 9.97481C10.0489 9.90222 10.0618 9.80447 10.0618 9.7024V8.1535C10.0618 6.54206 10.3874 5.77444 12.0973 5.77444H13.6304V7.14725H13.6311Z" fill="white"/>
</svg>
