<svg width="23" height="23" viewBox="0 0 23 23" fill="none" xmlns="http://www.w3.org/2000/svg">
<path d="M11.4067 5.73166C10.8381 5.73166 10.2823 5.90027 9.80948 6.21618C9.33668 6.53209 8.96819 6.98111 8.75059 7.50644C8.53298 8.03178 8.47605 8.60985 8.58698 9.16754C8.69791 9.72524 8.97173 10.2375 9.37381 10.6396C9.77588 11.0417 10.2882 11.3155 10.8459 11.4264C11.4035 11.5373 11.9816 11.4804 12.507 11.2628C13.0323 11.0452 13.4813 10.6767 13.7972 10.2039C14.1131 9.73113 14.2817 9.17528 14.2817 8.60666C14.2809 7.84443 13.9777 7.11366 13.4387 6.57469C12.8997 6.03571 12.169 5.73253 11.4067 5.73166ZM11.4067 10.0442C11.1224 10.0442 10.8445 9.95985 10.6081 9.8019C10.3717 9.64394 10.1875 9.41944 10.0787 9.15677C9.96986 8.8941 9.94139 8.60506 9.99686 8.32622C10.0523 8.04737 10.1892 7.79123 10.3903 7.59019C10.5913 7.38915 10.8474 7.25225 11.1263 7.19678C11.4051 7.14131 11.6942 7.16978 11.9568 7.27858C12.2195 7.38738 12.444 7.57163 12.602 7.80803C12.7599 8.04442 12.8442 8.32235 12.8442 8.60666C12.8438 8.98777 12.6922 9.35315 12.4227 9.62264C12.1532 9.89213 11.7879 10.0437 11.4067 10.0442Z" fill="white"/>
<path d="M16.9313 3.07781C15.5654 1.71221 13.742 0.900983 11.8131 0.800705C9.88419 0.700427 7.98652 1.31821 6.48632 2.53481C4.98613 3.75141 3.98977 5.4806 3.68953 7.38862C3.38929 9.29665 3.80647 11.2483 4.86055 12.8668L10.2919 21.2049C10.4128 21.3904 10.578 21.5428 10.7727 21.6484C10.9674 21.7539 11.1853 21.8092 11.4068 21.8092C11.6282 21.8092 11.8461 21.7539 12.0408 21.6484C12.2355 21.5428 12.4007 21.3904 12.5216 21.2049L17.9532 12.8668C18.9312 11.3654 19.3635 9.57337 19.1774 7.79117C18.9914 6.00897 18.1984 4.34487 16.9313 3.07781ZM16.7487 12.0821L11.4068 20.2826L6.06481 12.0821C4.42965 9.57195 4.78036 6.21269 6.8987 4.09426C7.4907 3.50224 8.19352 3.03262 8.96702 2.71222C9.74052 2.39182 10.5696 2.22691 11.4068 2.22691C12.244 2.22691 13.0731 2.39182 13.8466 2.71222C14.6201 3.03262 15.3229 3.50224 15.9149 4.09426C18.0332 6.21269 18.3839 9.57195 16.7487 12.0821Z" fill="white"/>
</svg>
