<svg width="46" height="46" viewBox="0 0 46 46" fill="none" xmlns="http://www.w3.org/2000/svg">
<path d="M37.375 41.6875H37.1306C8.88374 40.0631 4.87311 16.2294 4.31249 8.95563C4.26732 8.39008 4.33418 7.82119 4.50925 7.28153C4.68431 6.74187 4.96415 6.24206 5.33271 5.81074C5.70127 5.37941 6.15132 5.02505 6.65707 4.76796C7.16282 4.51086 7.71432 4.35609 8.27999 4.3125H16.2006C16.7764 4.31194 17.3391 4.4843 17.8158 4.80723C18.2926 5.13017 18.6613 5.58881 18.8744 6.12375L21.0594 11.5C21.2697 12.0226 21.322 12.5955 21.2095 13.1475C21.0971 13.6995 20.8249 14.2063 20.4269 14.605L17.365 17.6956C17.8433 20.4136 19.1449 22.919 21.0937 24.873C23.0426 26.827 25.5446 28.1352 28.2612 28.6206L31.3806 25.53C31.7853 25.1364 32.2969 24.8705 32.8516 24.7657C33.4063 24.6609 33.9796 24.7218 34.5 24.9406L39.9194 27.1113C40.4462 27.331 40.8958 27.7027 41.2106 28.1788C41.5255 28.655 41.6915 29.2141 41.6875 29.785V37.375C41.6875 38.5187 41.2331 39.6156 40.4244 40.4244C39.6156 41.2332 38.5187 41.6875 37.375 41.6875ZM8.62499 7.1875C8.24374 7.1875 7.87811 7.33895 7.60852 7.60854C7.33894 7.87812 7.18749 8.24375 7.18749 8.625V8.74C7.84874 17.25 12.0894 37.375 37.2887 38.8125C37.4776 38.8242 37.6669 38.7984 37.8458 38.7368C38.0247 38.6752 38.1896 38.5788 38.3312 38.4533C38.4727 38.3277 38.5881 38.1755 38.6707 38.0052C38.7533 37.835 38.8015 37.6501 38.8125 37.4613V29.785L33.3931 27.6144L29.2675 31.7112L28.5775 31.625C16.0712 30.0581 14.375 17.5519 14.375 17.4225L14.2887 16.7325L18.3712 12.6069L16.215 7.1875H8.62499Z" fill="white"/>
</svg>
