<svg width="33" height="33" viewBox="0 0 33 33" fill="none" xmlns="http://www.w3.org/2000/svg">
<path d="M29.6395 9.89589C29.4828 9.31376 29.176 8.783 28.7497 8.35672C28.3234 7.93045 27.7927 7.62362 27.2105 7.46695C25.6197 6.85233 10.2073 6.5512 5.7358 7.48414C5.15359 7.64087 4.62277 7.9478 4.19649 8.3742C3.77021 8.8006 3.46343 9.33151 3.30686 9.91376C2.58842 13.0646 2.53411 19.8763 3.32474 23.098C3.48141 23.6801 3.78823 24.2108 4.21451 24.6371C4.64078 25.0634 5.17155 25.3702 5.75367 25.5269C8.90449 26.2522 23.8837 26.354 27.2284 25.5269C27.8105 25.3702 28.3413 25.0634 28.7676 24.6371C29.1939 24.2108 29.5007 23.6801 29.6574 23.098C30.4232 19.6653 30.4775 13.2756 29.6395 9.89589V9.89589Z" stroke="white" stroke-linecap="round" stroke-linejoin="round"/>
<path d="M21.0148 16.4966L13.8325 12.3777V20.6154L21.0148 16.4966Z" stroke="white" stroke-linecap="round" stroke-linejoin="round"/>
</svg>
