<svg width="54" height="46" viewBox="0 0 54 46" fill="none" xmlns="http://www.w3.org/2000/svg">
<path d="M2.44035e-06 30.2137C-0.00148573 27.5444 0.677686 24.9188 1.97333 22.585C3.26898 20.2512 5.13831 18.2863 7.40467 16.8761C8.00282 12.2121 10.28 7.92597 13.8101 4.81971C17.3402 1.71346 21.8812 0 26.5833 0C31.2855 0 35.8265 1.71346 39.3566 4.81971C42.8867 7.92597 45.1639 12.2121 45.762 16.8761C48.5731 18.625 50.7598 21.2174 52.0098 24.2831C53.2598 27.3488 53.5092 30.7311 52.7223 33.947C51.9355 37.1629 50.1527 40.048 47.6285 42.1903C45.1043 44.3326 41.9677 45.6226 38.6667 45.8761L14.5 45.922C6.38967 45.2598 2.44035e-06 38.4835 2.44035e-06 30.2137ZM38.2993 41.0572C40.5851 40.8815 42.7568 39.9879 44.5044 38.5041C46.2519 37.0203 47.4859 35.0222 48.0299 32.7952C48.574 30.5682 48.4004 28.2263 47.5339 26.1038C46.6674 23.9814 45.1524 22.1871 43.2052 20.9772L41.2549 19.7616L40.9649 17.4851C40.5132 13.9898 38.8041 10.7787 36.1571 8.45179C33.5102 6.12491 30.1064 4.84153 26.5821 4.84153C23.0578 4.84153 19.6541 6.12491 17.0071 8.45179C14.3601 10.7787 12.6511 13.9898 12.1993 17.4851L11.9093 19.7616L9.96392 20.9772C8.0168 22.1869 6.50176 23.9811 5.63517 26.1033C4.76859 28.2255 4.59478 30.5673 5.13858 32.7942C5.68237 35.0211 6.91596 37.0192 8.66315 38.5032C10.4103 39.9872 12.5818 40.8811 14.8673 41.0572L15.2854 41.0887H37.8812L38.2993 41.0572ZM29 26.5887V36.2553H24.1667V26.5887H16.9167L26.5833 14.5053L36.25 26.5887H29Z" fill="#0791B6"/>
</svg>
