<svg width="61" height="61" viewBox="0 0 61 61" fill="none" xmlns="http://www.w3.org/2000/svg">
<path d="M33.4583 54.125V60.0417H27.5417V54.125H3.87499C3.09039 54.125 2.33793 53.8133 1.78313 53.2585C1.22834 52.7037 0.916656 51.9513 0.916656 51.1667V9.75H60.0833V51.1667C60.0833 51.9513 59.7716 52.7037 59.2169 53.2585C58.6621 53.8133 57.9096 54.125 57.125 54.125H33.4583ZM6.83332 48.2083H54.1667V15.6667H6.83332V48.2083ZM33.4583 21.5833H48.25V27.5H33.4583V21.5833ZM33.4583 33.4167H48.25V39.3333H33.4583V33.4167ZM21.625 21.5833V30.4583H30.5C30.5 32.2136 29.9795 33.9295 29.0043 35.389C28.0291 36.8485 26.643 37.986 25.0213 38.6578C23.3996 39.3295 21.6151 39.5052 19.8936 39.1628C18.172 38.8204 16.5906 37.9751 15.3494 36.7339C14.1082 35.4927 13.263 33.9113 12.9205 32.1898C12.5781 30.4682 12.7538 28.6837 13.4256 27.062C14.0973 25.4403 15.2348 24.0542 16.6943 23.079C18.1538 22.1038 19.8697 21.5833 21.625 21.5833V21.5833ZM0.916656 0.875H60.0833V6.79167H0.916656V0.875Z" fill="#0791B6"/>
</svg>
