<svg width="46" height="51" viewBox="0 0 46 51" fill="none" xmlns="http://www.w3.org/2000/svg">
<path d="M9.59234 40.25C10.0641 38.8106 10.9391 37.5641 12.0965 36.6824C13.254 35.8008 14.637 35.3273 16.0549 35.3273C17.4729 35.3273 18.8559 35.8008 20.0134 36.6824C21.1708 37.5641 22.0458 38.8106 22.5176 40.25H45.7419V45.1667H22.5176C22.0458 46.6061 21.1708 47.8526 20.0134 48.7342C18.8559 49.6159 17.4729 50.0894 16.0549 50.0894C14.637 50.0894 13.254 49.6159 12.0965 48.7342C10.9391 47.8526 10.0641 46.6061 9.59234 45.1667H0.0696869V40.25H9.59234ZM23.294 23.0417C23.7658 21.6022 24.6407 20.3558 25.7982 19.4741C26.9557 18.5924 28.3387 18.119 29.7566 18.119C31.1745 18.119 32.5575 18.5924 33.715 19.4741C34.8725 20.3558 35.7474 21.6022 36.2192 23.0417H45.7419V27.9583H36.2192C35.7474 29.3978 34.8725 30.6442 33.715 31.5259C32.5575 32.4076 31.1745 32.881 29.7566 32.881C28.3387 32.881 26.9557 32.4076 25.7982 31.5259C24.6407 30.6442 23.7658 29.3978 23.294 27.9583H0.0696869V23.0417H23.294ZM9.59234 5.83334C10.0641 4.3939 10.9391 3.14744 12.0965 2.26578C13.254 1.38411 14.637 0.910645 16.0549 0.910645C17.4729 0.910645 18.8559 1.38411 20.0134 2.26578C21.1708 3.14744 22.0458 4.3939 22.5176 5.83334H45.7419V10.75H22.5176C22.0458 12.1894 21.1708 13.4359 20.0134 14.3176C18.8559 15.1992 17.4729 15.6727 16.0549 15.6727C14.637 15.6727 13.254 15.1992 12.0965 14.3176C10.9391 13.4359 10.0641 12.1894 9.59234 10.75H0.0696869V5.83334H9.59234ZM16.0549 10.75C16.6606 10.75 17.2414 10.491 17.6697 10.03C18.098 9.56895 18.3386 8.94366 18.3386 8.29167C18.3386 7.63968 18.098 7.01439 17.6697 6.55337C17.2414 6.09234 16.6606 5.83334 16.0549 5.83334C15.4493 5.83334 14.8685 6.09234 14.4402 6.55337C14.0119 7.01439 13.7713 7.63968 13.7713 8.29167C13.7713 8.94366 14.0119 9.56895 14.4402 10.03C14.8685 10.491 15.4493 10.75 16.0549 10.75V10.75ZM29.7566 27.9583C30.3623 27.9583 30.9431 27.6993 31.3714 27.2383C31.7996 26.7773 32.0402 26.152 32.0402 25.5C32.0402 24.848 31.7996 24.2227 31.3714 23.7617C30.9431 23.3007 30.3623 23.0417 29.7566 23.0417C29.151 23.0417 28.5701 23.3007 28.1418 23.7617C27.7136 24.2227 27.473 24.848 27.473 25.5C27.473 26.152 27.7136 26.7773 28.1418 27.2383C28.5701 27.6993 29.151 27.9583 29.7566 27.9583V27.9583ZM16.0549 45.1667C16.6606 45.1667 17.2414 44.9077 17.6697 44.4466C18.098 43.9856 18.3386 43.3603 18.3386 42.7083C18.3386 42.0563 18.098 41.4311 17.6697 40.97C17.2414 40.509 16.6606 40.25 16.0549 40.25C15.4493 40.25 14.8685 40.509 14.4402 40.97C14.0119 41.4311 13.7713 42.0563 13.7713 42.7083C13.7713 43.3603 14.0119 43.9856 14.4402 44.4466C14.8685 44.9077 15.4493 45.1667 16.0549 45.1667V45.1667Z" fill="#0791B6"/>
</svg>
