<svg width="28" height="28" viewBox="0 0 28 28" fill="none" xmlns="http://www.w3.org/2000/svg">
<path d="M16.0001 28H18.0001V26C18.0001 25.7347 18.1054 25.4804 18.2929 25.2928C18.4805 25.1053 18.7348 25 19.0001 25H25.0001C25.2653 25 25.5196 25.1053 25.7072 25.2928C25.8947 25.4804 26.0001 25.7347 26.0001 26V28H28.0001V26C27.9993 25.2045 27.6829 24.4419 27.1205 23.8795C26.5581 23.3171 25.7955 23.0007 25.0001 23H19.0001C18.2046 23.0007 17.442 23.3171 16.8796 23.8795C16.3172 24.4419 16.0008 25.2045 16.0001 26V28ZM22.0001 22C21.2089 22 20.4356 21.7654 19.7778 21.3258C19.12 20.8863 18.6073 20.2616 18.3045 19.5307C18.0018 18.7998 17.9226 17.9955 18.0769 17.2196C18.2313 16.4437 18.6122 15.7309 19.1716 15.1715C19.731 14.6121 20.4438 14.2312 21.2197 14.0768C21.9956 13.9225 22.7999 14.0017 23.5308 14.3044C24.2617 14.6072 24.8864 15.1199 25.3259 15.7777C25.7655 16.4355 26.0001 17.2088 26.0001 18C25.999 19.0605 25.5772 20.0773 24.8273 20.8272C24.0774 21.5771 23.0606 21.9989 22.0001 22V22ZM22.0001 16C21.6045 16 21.2178 16.1173 20.8889 16.337C20.56 16.5568 20.3037 16.8691 20.1523 17.2346C20.0009 17.6 19.9613 18.0022 20.0385 18.3901C20.1157 18.7781 20.3061 19.1345 20.5858 19.4142C20.8655 19.6939 21.2219 19.8844 21.6099 19.9615C21.9978 20.0387 22.4 19.9991 22.7654 19.8477C23.1309 19.6963 23.4432 19.44 23.663 19.1111C23.8828 18.7822 24.0001 18.3955 24.0001 18C23.9995 17.4697 23.7886 16.9613 23.4137 16.5863C23.0387 16.2114 22.5303 16.0005 22.0001 16V16ZM23.3421 8.05995L1.34205 0.0599532C1.16324 -0.00513755 0.96956 -0.0178558 0.783768 0.023292C0.597975 0.0644399 0.42778 0.157746 0.293169 0.292252C0.158558 0.426758 0.0651201 0.59688 0.0238273 0.78264C-0.0174655 0.9684 -0.00489853 1.16209 0.0600526 1.34095L8.06005 23.341C8.12926 23.5314 8.25465 23.6964 8.41963 23.8141C8.58462 23.9317 8.78143 23.9965 8.98405 24H9.00005C9.20005 24 9.39547 23.9401 9.56107 23.828C9.72667 23.7159 9.85486 23.5567 9.92905 23.371L13.7701 13.769L23.3721 9.92895C23.5607 9.854 23.722 9.72341 23.8347 9.55455C23.9473 9.38569 24.0059 9.18655 24.0026 8.9836C23.9994 8.78064 23.9344 8.58349 23.8164 8.41832C23.6985 8.25316 23.533 8.12782 23.3421 8.05895V8.05995ZM12.6281 12.07L12.2301 12.23L12.0711 12.628L9.04405 20.196L2.67205 2.67195L20.1961 9.04395L12.6281 12.07Z" fill="#0791B6"/>
</svg>
