<svg width="29" height="29" viewBox="0 0 29 29" fill="none" xmlns="http://www.w3.org/2000/svg">
<g clip-path="url(#clip0_48_206)">
<path d="M28.5 14.8374C28.5 6.91792 22.1196 0.498291 14.25 0.498291C6.3769 0.500072 -0.00354004 6.91792 -0.00354004 14.8391C-0.00354004 21.9944 5.2084 27.926 12.0199 29.0019V18.9823H8.40396V14.8391H12.0235V11.6774C12.0235 8.08463 14.1521 6.10032 17.4064 6.10032C18.9668 6.10032 20.5966 6.37998 20.5966 6.37998V9.90685H18.7993C17.0306 9.90685 16.4784 11.013 16.4784 12.1477V14.8374H20.4292L19.7986 18.9805H16.4766V29.0001C23.2881 27.9242 28.5 21.9926 28.5 14.8374Z" fill="black"/>
</g>
<defs>
<clipPath id="clip0_48_206">
<rect width="28.5" height="28.5" fill="white" transform="translate(0 0.5)"/>
</clipPath>
</defs>
</svg>
