<svg width="31" height="31" viewBox="0 0 31 31" fill="none" xmlns="http://www.w3.org/2000/svg">
<path d="M30.5389 6.37696C29.4604 6.85487 28.3017 7.17779 27.0837 7.32375C28.3405 6.57173 29.2808 5.38814 29.729 3.99383C28.5483 4.69519 27.2559 5.18887 25.9083 5.45341C25.002 4.48578 23.8017 3.84442 22.4935 3.6289C21.1854 3.41338 19.8427 3.63577 18.674 4.26153C17.5052 4.8873 16.5757 5.88142 16.0298 7.08957C15.4839 8.29772 15.3522 9.6523 15.655 10.943C13.2625 10.8229 10.9219 10.201 8.78521 9.11775C6.64853 8.0345 4.7635 6.51408 3.25245 4.65516C2.73579 5.54641 2.4387 6.57975 2.4387 7.68025C2.43813 8.67095 2.68209 9.64648 3.14896 10.5203C3.61583 11.3941 4.29116 12.1391 5.11504 12.6893C4.15956 12.6589 3.22516 12.4008 2.38962 11.9363V12.0138C2.38952 13.4033 2.87016 14.75 3.74998 15.8255C4.6298 16.901 5.85461 17.6389 7.21658 17.9141C6.33021 18.154 5.40093 18.1893 4.49891 18.0175C4.88318 19.213 5.6317 20.2585 6.63968 21.0076C7.64766 21.7566 8.86464 22.1717 10.1202 22.1947C7.98878 23.8679 5.35643 24.7756 2.64666 24.7716C2.16665 24.7717 1.68705 24.7437 1.21033 24.6876C3.9609 26.4561 7.16277 27.3947 10.4328 27.3911C21.5024 27.3911 27.5539 18.2228 27.5539 10.2713C27.5539 10.013 27.5474 9.75208 27.5358 9.49375C28.7129 8.64251 29.7289 7.5884 30.5363 6.38083L30.5389 6.37696Z" fill="black"/>
</svg>
