<svg width="55" height="55" viewBox="0 0 55 55" fill="none" xmlns="http://www.w3.org/2000/svg">
<path d="M6.875 3.4375H3.4375V48.125C3.4375 49.0367 3.79966 49.911 4.44432 50.5557C5.08898 51.2003 5.96332 51.5625 6.875 51.5625H51.5625V48.125H6.875V3.4375Z" fill="white"/>
<path d="M51.5625 15.4688H39.5312V18.9062H45.7016L32.6562 31.9516L25.2828 24.5609C25.123 24.3998 24.9329 24.272 24.7235 24.1847C24.514 24.0975 24.2894 24.0525 24.0625 24.0525C23.8356 24.0525 23.611 24.0975 23.4015 24.1847C23.1921 24.272 23.002 24.3998 22.8422 24.5609L10.3125 37.1078L12.7359 39.5312L24.0625 28.2047L31.4359 35.5953C31.5957 35.7564 31.7858 35.8843 31.9953 35.9715C32.2047 36.0588 32.4294 36.1037 32.6562 36.1037C32.8831 36.1037 33.1078 36.0588 33.3172 35.9715C33.5267 35.8843 33.7168 35.7564 33.8766 35.5953L48.125 21.3297V27.5H51.5625V15.4688Z" fill="white"/>
</svg>
