<svg width="63" height="47" viewBox="0 0 63 47" fill="none" xmlns="http://www.w3.org/2000/svg">
<path d="M21.6562 0.84375C17.7798 0.84375 14.6869 3.68072 14.0273 7.36622C10.3064 8.30334 7.07569 10.7269 5.66016 14.564H5.59913L1.41553 26.3154C0.489549 28.1904 0.00532473 30.2526 0 32.3438C0 39.9333 6.19172 46.125 13.7812 46.125C20.6187 46.125 26.3163 41.1047 27.3774 34.5586C28.471 35.6535 29.9525 36.2726 31.5 36.2812C33.1006 36.2812 34.5516 35.6119 35.6226 34.5586C36.6837 41.1027 42.3813 46.125 49.2188 46.125C56.8083 46.125 63 39.9333 63 32.3438C63 30.4282 62.6063 28.5913 61.8916 26.9297L57.4028 14.3789L57.3398 14.3179V14.2568C55.9027 10.7643 52.7172 8.32697 48.9727 7.36622C48.3112 3.67875 45.2202 0.84375 41.3438 0.84375C37.6917 0.84375 34.7228 3.37359 33.8369 6.75H29.1611C28.2791 3.37359 25.3083 0.84375 21.6562 0.84375ZM21.6562 4.78125C24.001 4.78125 25.5938 6.37397 25.5938 8.71875V10.6875H37.4062V8.71875C37.4062 6.37397 38.999 4.78125 41.3438 4.78125C43.6885 4.78125 45.2812 6.37397 45.2812 8.71875V10.5024L47.0649 10.6875C49.9885 10.9946 52.5105 13.0323 53.6484 15.6704C53.6642 15.7098 53.6937 15.7551 53.7095 15.7944L55.186 19.978C53.3299 19.0601 51.2894 18.5761 49.2188 18.5625C43.4582 18.5625 38.5363 22.1378 36.4829 27.1758C35.9444 26.3444 35.2063 25.6611 34.3359 25.1883C33.4655 24.7154 32.4905 24.468 31.5 24.4688C29.4328 24.4688 27.5704 25.5378 26.5171 27.1758C24.4637 22.1378 19.5418 18.5625 13.7812 18.5625C11.6747 18.5625 9.66656 19.0626 7.875 19.917L9.35156 15.9165V15.8555C10.4974 12.8098 12.913 11.0025 15.9351 10.6875L17.7188 10.5024V8.71875C17.7188 6.37397 19.3115 4.78125 21.6562 4.78125ZM13.7812 22.5C19.2406 22.5 23.625 26.8844 23.625 32.3438C23.625 37.8031 19.2406 42.1875 13.7812 42.1875C8.32191 42.1875 3.9375 37.8031 3.9375 32.3438C3.9375 30.9518 4.284 29.6663 4.79981 28.4673C4.82934 28.3905 4.82934 28.298 4.85887 28.2212C5.64086 26.5124 6.89775 25.0644 8.47972 24.0501C10.0617 23.0357 11.902 22.4976 13.7812 22.5ZM49.2188 22.5C54.6781 22.5 59.0625 26.8844 59.0625 32.3438C59.0625 37.8031 54.6781 42.1875 49.2188 42.1875C43.7594 42.1875 39.375 37.8031 39.375 32.3438C39.375 26.8844 43.7594 22.5 49.2188 22.5ZM31.5 28.4062C32.6084 28.4062 33.4688 29.2686 33.4688 30.375C33.4688 31.4834 32.6064 32.3438 31.5 32.3438C30.3916 32.3438 29.5312 31.4814 29.5312 30.375C29.5312 29.2666 30.3936 28.4062 31.5 28.4062Z" fill="white"/>
</svg>
