<svg width="75" height="80" viewBox="0 0 75 80" fill="none" xmlns="http://www.w3.org/2000/svg">
<path d="M40.86 46.3L23.89 36.5L7.03 46.23L24 56.03L40.86 46.3Z" stroke="white" stroke-width="2" stroke-linecap="round" stroke-linejoin="round"/>
<path d="M24 56.03L7.03 46.23V65.7L24 75.5V56.03ZM40.86 46.3L24 56.03V75.5L40.86 65.77V46.3Z" stroke="white" stroke-width="2" stroke-linecap="round" stroke-linejoin="round"/>
<path d="M70.3888 46.2354L59.429 39.9062L48.5402 46.1902L59.5 52.5194L70.3888 46.2354Z" stroke="white" stroke-width="2" stroke-linecap="round" stroke-linejoin="round"/>
<path d="M59.5 52.5194L48.5402 46.1902V58.7646L59.5 65.0937V52.5194ZM70.3888 46.2354L59.5 52.5194V65.0937L70.3888 58.8098V46.2354Z" stroke="white" stroke-width="2" stroke-linecap="round" stroke-linejoin="round"/>
<path d="M52.9013 12.2146L38.406 3.84375L24.0048 12.1548L38.5 20.5256L52.9013 12.2146Z" stroke="white" stroke-width="2" stroke-linecap="round" stroke-linejoin="round"/>
<path d="M38.5 20.5256L24.0048 12.1548V28.7854L38.5 37.1562V20.5256ZM52.9013 12.2146L38.5 20.5256V37.1562L52.9013 28.8452V12.2146Z" stroke="white" stroke-width="2" stroke-linecap="round" stroke-linejoin="round"/>
</svg>
