<svg width="54" height="54" viewBox="0 0 54 54" fill="none" xmlns="http://www.w3.org/2000/svg">
<path d="M37.3292 16.6708C36.3798 15.7218 35.0924 15.1886 33.75 15.1886C32.4076 15.1886 31.1202 15.7218 30.1708 16.6708L29.3861 17.4538L31.7723 19.84L32.557 19.057C32.8752 18.7496 33.3015 18.5795 33.7439 18.5833C34.1864 18.5872 34.6096 18.7646 34.9225 19.0775C35.2354 19.3904 35.4129 19.8136 35.4167 20.2561C35.4206 20.6985 35.2505 21.1248 34.9431 21.4431L29.3861 27L31.7723 29.3861L37.3292 23.8292C38.2783 22.8798 38.8114 21.5924 38.8114 20.25C38.8114 18.9076 38.2783 17.6202 37.3292 16.6708ZM21.4431 34.9431C21.1248 35.2505 20.6985 35.4206 20.2561 35.4167C19.8136 35.4129 19.3904 35.2354 19.0775 34.9225C18.7646 34.6096 18.5872 34.1864 18.5833 33.7439C18.5795 33.3015 18.7496 32.8752 19.057 32.557L24.6139 27L22.2278 24.6139L16.6708 30.1708C16.1873 30.6378 15.8016 31.1964 15.5363 31.8141C15.271 32.4317 15.1313 33.096 15.1255 33.7682C15.1197 34.4404 15.2477 35.1071 15.5023 35.7292C15.7568 36.3514 16.1327 36.9166 16.6081 37.392C17.0834 37.8673 17.6486 38.2432 18.2708 38.4977C18.893 38.7523 19.5596 38.8804 20.2318 38.8745C20.904 38.8687 21.5683 38.729 22.1859 38.4637C22.8036 38.1984 23.3622 37.8127 23.8292 37.3292L24.6139 36.5462L22.2278 34.1601L21.4431 34.9431ZM23.8292 16.6725C22.8705 15.7727 21.5994 15.2811 20.2847 15.3019C18.9701 15.3226 17.7151 15.854 16.7852 16.7836C15.8554 17.7132 15.3237 18.9681 15.3027 20.2827C15.2817 21.5974 15.7729 22.8686 16.6725 23.8275L17.4555 24.6122L19.8416 22.2261L19.0586 21.4414C18.7512 21.1231 18.5812 20.6969 18.585 20.2544C18.5888 19.8119 18.7663 19.3887 19.0792 19.0758C19.3921 18.7629 19.8153 18.5855 20.2578 18.5816C20.7002 18.5778 21.1265 18.7479 21.4448 19.0553L27 24.6139L29.3861 22.2278L23.8292 16.6725Z" fill="white"/>
<path d="M37.3292 30.1708L36.5462 29.3861L34.1601 31.7722L34.9431 32.5569C35.2505 32.8752 35.4206 33.3015 35.4167 33.7439C35.4129 34.1864 35.2354 34.6096 34.9225 34.9225C34.6096 35.2354 34.1864 35.4128 33.7439 35.4167C33.3015 35.4205 32.8752 35.2504 32.557 34.943L27 29.3861L24.6139 31.7722L30.1708 37.3292C31.1256 38.2513 32.4044 38.7616 33.7318 38.7501C35.0592 38.7385 36.3289 38.2061 37.2675 37.2675C38.2062 36.3289 38.7386 35.0591 38.7501 33.7318C38.7617 32.4044 38.2514 31.1256 37.3292 30.1708Z" fill="white"/>
<path d="M27 52.3125C26.7012 52.3127 26.4076 52.2335 26.1495 52.083L5.8995 40.2705C5.64473 40.1218 5.43337 39.909 5.28651 39.6532C5.13965 39.3973 5.06241 39.1075 5.0625 38.8125V15.1875C5.06241 14.8925 5.13965 14.6027 5.28651 14.3469C5.43337 14.091 5.64473 13.8782 5.8995 13.7295L26.1495 1.91701C26.4076 1.76638 26.7011 1.68701 27 1.68701C27.2989 1.68701 27.5924 1.76638 27.8505 1.91701L48.1005 13.7295L46.3995 16.6455L27 5.32914L8.4375 16.1561V37.8439L27 48.6726L45.5625 37.8439V25.3125H48.9375V38.8125C48.9376 39.1075 48.8603 39.3973 48.7135 39.6532C48.5666 39.909 48.3553 40.1218 48.1005 40.2705L27.8505 52.083C27.5924 52.2335 27.2988 52.3127 27 52.3125Z" fill="white"/>
</svg>
